<?xml version="1.0" encoding="utf-8"?>
<!-- Generator: Adobe Illustrator 15.1.0, SVG Export Plug-In . SVG Version: 6.00 Build 0)  -->
<!DOCTYPE svg PUBLIC "-//W3C//DTD SVG 1.1//EN" "http://www.w3.org/Graphics/SVG/1.1/DTD/svg11.dtd">
<svg version="1.1" id="Layer_1" xmlns="http://www.w3.org/2000/svg" xmlns:xlink="http://www.w3.org/1999/xlink" x="0px" y="0px"
	 width="221px" height="28px" viewBox="0 0 221 28" enable-background="new 0 0 221 28" xml:space="preserve">
<g>
	<path fill="#FF0000" d="M145.846,5.785c0-0.706-0.181-1.362-0.478-1.966l-3.534,2.629v8.29l0,0c0,1.324-1.409,2.789-2.789,2.789
		v0.004h-12.104l-3.186,2.373c0.924,0.397,1.878,0.617,2.717,0.617v-0.006h12.57v0.006c0.041,0,0.087-0.006,0.132-0.006h0.087
		v-0.005c2.68-0.112,6.401-2.339,6.562-5.557h0.004v-0.029c0-0.063,0.015-0.125,0.015-0.188h-0.015L145.846,5.785z"/>
	<path fill="#FF0000" d="M119.677,14.738c0,0.043,0.009,0.085,0.009,0.129v0.074h0.004c0.031,0.625,0.194,1.209,0.459,1.754
		l3.528-2.629V5.795h0.009c0-1.325,1.412-2.791,2.787-2.791V2.999h12.074l3.203-2.384C140.83,0.219,139.88,0,139.045,0v0.013
		h-12.572V0.009c-2.754,0-6.796,2.364-6.796,5.786h0.009v8.943H119.677z"/>
</g>
<path fill="#FF0000" d="M18.41,0.009c0,0-8.414,0-13.422,0C-0.021,0.009,0,3.355,0,3.355v15.567c0,0-0.051,1.61,1.973,1.61
	s2.054-1.531,2.054-1.531V11.79H18.35c0,0,7.532,0.219,7.532-5.791S18.41,0.009,18.41,0.009z M18.665,8.792L4,8.778V5.746
	c0,0-0.321-2.685,2.765-2.685c3.085,0,11.965,0,11.965,0s3.179,0.015,3.179,2.885C21.909,8.817,18.665,8.792,18.665,8.792z"/>
<path fill="#FF0000" d="M55.665,20.543l-7.762-8.753h0.217c0,0,7.533,0.219,7.533-5.791s-7.473-5.99-7.473-5.99s-8.414,0-13.422,0
	c-5.008,0-4.988,3.346-4.988,3.346v15.567c0,0-0.051,1.61,1.972,1.61c2.024,0,2.054-1.531,2.054-1.531V11.79h9.392l7.764,8.753
	H55.665z M33.769,8.778V5.746c0,0-0.32-2.685,2.765-2.685s11.966,0,11.966,0s3.178,0.015,3.178,2.885
	c0,2.872-3.244,2.846-3.244,2.846L33.769,8.778z"/>
<path fill="#FF0000" d="M83.76,17.525v0.006H66.332v-0.004c-1.376,0-2.787-1.465-2.787-2.789h-0.006v-2.985h11.184v0.002
	c0,0,1.95,0.039,1.95-1.466c0-1.373-1.618-1.504-1.903-1.518V8.768H63.54V5.795h0.006c0-1.325,1.411-2.791,2.787-2.791V2.999H83.76
	v0.002c0,0,1.948,0.04,1.948-1.465c0-1.389-1.655-1.509-1.913-1.517V0.013H66.332V0.009c-2.756,0-6.797,2.364-6.797,5.786h0.01
	v8.943h-0.01c0,0.043,0.009,0.085,0.01,0.129v0.074h0.006c0.156,3.31,4.082,5.582,6.781,5.582v-0.006h17.477V20.51
	c0.292-0.007,1.899-0.098,1.899-1.468C85.708,17.538,83.76,17.525,83.76,17.525z"/>
<path fill="#FF0000" d="M115.742,14.503h-0.01c-0.002-0.207-0.099-1.512-2.004-1.512c-2.074,0-1.994,1.543-1.994,1.543h0.008v0.213
	h0.002c-0.006,1.321-1.416,2.78-2.788,2.78v0.004H96.382v-0.004c-1.376,0-2.787-1.465-2.787-2.789h-0.006V5.795h0.006
	c0-1.325,1.411-2.791,2.787-2.791V2.999h12.603c1.362,0.019,2.753,1.464,2.76,2.777h-0.002V5.99c0,0-0.087,1.542,1.985,1.542
	c1.908,0,2.002-1.305,2.004-1.512h0.011V5.785h0.012c0-3.422-4.041-5.785-6.798-5.785v0.013H96.382V0.009
	c-2.754,0-6.798,2.364-6.798,5.786h0.011v8.943h-0.011c0,0.043,0.011,0.085,0.011,0.129v0.074h0.006
	c0.157,3.31,4.082,5.582,6.781,5.582v-0.006h12.574v0.006c0.044,0,0.085-0.006,0.128-0.006h0.085v-0.004
	c2.746-0.117,6.585-2.438,6.585-5.774h-0.012V14.503z"/>
<path fill="#FF0000" d="M175.533,5.785h0.012c0-3.422-4.041-5.785-6.793-5.785v0.013h-12.577V0.009
	c-2.756,0-6.797,2.364-6.797,5.786h0.009v9.146h0.008c0.158,3.31,4.082,5.582,6.78,5.582v-0.006h15.366v1.697h-0.006
	c0,1.312-1.391,2.768-7.574,2.785l-12.604-0.005v0.002c-0.229,0.002-1.922,0.062-1.922,1.468c0,1.377,1.627,1.503,1.902,1.516v0.01
	L168.752,28c2.752,0,6.797-2.363,6.797-5.783L175.533,5.785z M156.175,17.531v-0.004c-1.374,0-2.788-1.465-2.788-2.789h-0.005V5.795
	h0.005c0-1.325,1.414-2.791,2.788-2.791V2.999h12.603c1.369,0.019,2.76,1.471,2.76,2.787h0.006v11.746L156.175,17.531
	L156.175,17.531z"/>
<g>
	<path fill="#999999" d="M189.096,20.459h-1.769V4.85h1.769V20.459z"/>
	<path fill="#999999" d="M199.495,4.849c0.927,0,1.823,0.177,2.688,0.53c0.862,0.354,1.627,0.869,2.285,1.545
		c1.462,1.494,2.192,3.403,2.192,5.73c0,2.327-0.73,4.237-2.192,5.73c-0.658,0.676-1.423,1.19-2.285,1.544
		c-0.865,0.354-1.764,0.529-2.688,0.529h-6.579V4.848L199.495,4.849L199.495,4.849z M199.424,18.785
		c1.635,0,2.964-0.604,3.984-1.814c0.99-1.164,1.486-2.603,1.486-4.315c0-1.713-0.496-3.152-1.486-4.315
		c-1.021-1.21-2.35-1.815-3.984-1.815h-4.738v12.259H199.424z"/>
	<path fill="#999999" d="M211.285,6.546v5.235h8.678v1.721h-8.678v5.259H221v1.697h-11.482V4.85H221v1.698h-9.715V6.546z"/>
</g>
</svg>
