<?xml version="1.0" encoding="utf-8"?>
<!-- Generator: Adobe Illustrator 15.1.0, SVG Export Plug-In . SVG Version: 6.00 Build 0)  -->
<!DOCTYPE svg PUBLIC "-//W3C//DTD SVG 1.1//EN" "http://www.w3.org/Graphics/SVG/1.1/DTD/svg11.dtd">
<svg version="1.1" id="Layer_1" xmlns="http://www.w3.org/2000/svg" xmlns:xlink="http://www.w3.org/1999/xlink" x="0px" y="0px"
	 width="188.521px" height="21.025px" viewBox="0 0 188.521 21.025" enable-background="new 0 0 188.521 21.025"
	 xml:space="preserve">
<g>
	<g>
		<path fill="#EC2024" d="M109.661,4.341c0-0.528-0.138-1.022-0.358-1.477l-2.655,1.977v6.228l0,0c0,0.996-1.06,2.096-2.096,2.096
			v0.004h-9.094l-2.396,1.783c0.694,0.299,1.412,0.465,2.043,0.465V15.41h9.442v0.006c0.031,0,0.062-0.006,0.099-0.006h0.066v-0.006
			c2.014-0.082,4.809-1.756,4.93-4.174h0.004v-0.021c0-0.047,0.011-0.094,0.011-0.141h-0.011L109.661,4.341z"/>
		<path fill="#EC2024" d="M90,11.067c0,0.033,0.007,0.062,0.007,0.098v0.058h0.003c0.024,0.469,0.146,0.907,0.345,1.315l2.651-1.977
			V4.348h0.006c0-0.996,1.062-2.099,2.095-2.099V2.249h9.07l2.407-1.791c-0.69-0.299-1.405-0.463-2.032-0.463v0.01h-9.445V0.001
			c-2.067,0-5.104,1.775-5.104,4.349h0.007v6.719L90,11.067L90,11.067z"/>
	</g>
	<path fill="#EC2024" d="M13.921,0.001c0,0-6.322,0-10.084,0c-3.763,0-3.747,2.515-3.747,2.515V14.21c0,0-0.038,1.211,1.481,1.211
		c1.521,0,1.544-1.149,1.544-1.149V8.852h10.761c0,0,5.659,0.164,5.659-4.353C19.535-0.016,13.921,0.001,13.921,0.001z M14.112,6.6
		L3.094,6.589V4.311c0,0-0.241-2.019,2.078-2.019c2.316,0,8.989,0,8.989,0s2.388,0.013,2.388,2.168
		C16.549,6.62,14.112,6.6,14.112,6.6z"/>
	<path fill="#EC2024" d="M41.909,15.427l-5.832-6.575h0.163c0,0,5.659,0.164,5.659-4.353c0-4.516-5.613-4.5-5.613-4.5
		s-6.321,0-10.084,0c-3.764,0-3.747,2.515-3.747,2.515V14.21c0,0-0.039,1.211,1.48,1.211c1.521,0,1.543-1.149,1.543-1.149V8.852
		h7.057l5.833,6.575H41.909z M25.459,6.589V4.311c0,0-0.24-2.019,2.077-2.019s8.989,0,8.989,0s2.389,0.013,2.389,2.168
		c0,2.158-2.438,2.14-2.438,2.14L25.459,6.589z"/>
	<path fill="#EC2024" d="M63.017,13.161v0.006H49.923v-0.004c-1.034,0-2.094-1.102-2.094-2.096h-0.004V8.823h8.401v0.002
		c0,0,1.465,0.029,1.465-1.102c0-1.031-1.215-1.13-1.43-1.142V6.581h-8.437V4.348h0.004c0-0.996,1.06-2.099,2.094-2.099V2.249
		h13.092v0.002c0,0,1.465,0.029,1.465-1.102c0-1.043-1.244-1.135-1.438-1.142V0.005h-13.12V0.001c-2.07,0-5.106,1.775-5.106,4.349
		h0.008v6.719h-0.008c0,0.033,0.006,0.062,0.008,0.098v0.058h0.004c0.117,2.485,3.066,4.192,5.095,4.192v-0.004h13.13v-0.008
		c0.22-0.006,1.427-0.072,1.427-1.104C64.481,13.171,63.017,13.161,63.017,13.161z"/>
	<path fill="#EC2024" d="M87.045,10.889h-0.007c-0.002-0.154-0.076-1.136-1.509-1.136c-1.559,0-1.497,1.16-1.497,1.16h0.007v0.158
		h0.001c-0.004,0.992-1.062,2.09-2.095,2.09v0.004h-9.446v-0.004c-1.034,0-2.095-1.102-2.095-2.096h-0.006V4.348h0.006
		c0-0.996,1.061-2.099,2.095-2.099V2.249h9.468c1.021,0.015,2.067,1.101,2.073,2.086h-0.001v0.16c0,0-0.065,1.158,1.49,1.158
		c1.435,0,1.505-0.98,1.508-1.137h0.008V4.341h0.008c0-2.569-3.036-4.346-5.106-4.346v0.01H72.5V0.001
		c-2.069,0-5.107,1.775-5.107,4.349h0.008v6.719h-0.008c0,0.033,0.008,0.062,0.008,0.098v0.058h0.007
		c0.116,2.485,3.064,4.192,5.094,4.192v-0.004h9.446v0.004c0.033,0,0.062-0.004,0.098-0.004h0.062v-0.006
		c2.062-0.088,4.946-1.83,4.946-4.338h-0.009V10.889L87.045,10.889z"/>
	<path fill="#EC2024" d="M131.965,4.341h0.009c0-2.569-3.035-4.346-5.104-4.346v0.01h-9.449V0.001c-2.07,0-5.105,1.775-5.105,4.349
		h0.006v6.87h0.007c0.118,2.486,3.065,4.193,5.095,4.193v-0.004h11.544v1.273h-0.004c0,0.983-1.045,2.08-5.689,2.092l-9.47-0.004
		v0.002c-0.172,0.002-1.442,0.047-1.442,1.104c0,1.035,1.223,1.129,1.43,1.142v0.006l13.083,0.008c2.065,0,5.104-1.775,5.104-4.344
		L131.965,4.341z M117.421,13.167v-0.004c-1.032,0-2.096-1.102-2.096-2.096h-0.005V4.348h0.005c0-0.996,1.062-2.099,2.096-2.099
		V2.249h9.468c1.028,0.015,2.074,1.104,2.074,2.094h0.004v8.824H117.421L117.421,13.167z"/>
	<g enable-background="new    ">
		<path fill="#999999" d="M144.765,14.729c-0.125,0-0.225-0.004-0.295-0.013c-0.07-0.008-0.123-0.027-0.156-0.057
			c-0.033-0.028-0.053-0.075-0.057-0.138s-0.006-0.148-0.006-0.257V1.645c0-0.109,0.008-0.216,0.024-0.32s0.046-0.198,0.088-0.282
			c0.042-0.083,0.101-0.15,0.175-0.2c0.076-0.05,0.176-0.075,0.301-0.075c0.102,0,0.183,0.027,0.245,0.082
			c0.062,0.054,0.11,0.123,0.144,0.206c0.033,0.084,0.057,0.178,0.069,0.282s0.019,0.207,0.019,0.308v12.257h10.766
			c0.168,0,0.295,0.044,0.383,0.132s0.132,0.182,0.132,0.281c0,0.109-0.044,0.205-0.132,0.289c-0.088,0.083-0.215,0.125-0.383,0.125
			H144.765z"/>
		<path fill="#999999" d="M169.492,10.368h-8.986c-0.134,0.259-0.282,0.552-0.444,0.877c-0.164,0.326-0.332,0.658-0.508,0.996
			c-0.176,0.339-0.355,0.671-0.539,0.997c-0.184,0.325-0.357,0.616-0.521,0.871s-0.312,0.459-0.444,0.614
			c-0.135,0.154-0.247,0.231-0.339,0.231c-0.159,0-0.276-0.046-0.351-0.138c-0.076-0.092-0.113-0.171-0.113-0.238
			c0-0.108,0.027-0.213,0.082-0.313c0.054-0.101,0.114-0.209,0.182-0.326l6.867-12.558c0.092-0.158,0.176-0.297,0.252-0.414
			c0.074-0.116,0.162-0.184,0.263-0.2c0.108,0,0.192,0.011,0.251,0.031c0.058,0.021,0.121,0.077,0.188,0.17l0.264,0.414l6.88,12.568
			c0.067,0.117,0.126,0.23,0.176,0.339c0.05,0.109,0.075,0.209,0.075,0.301c0,0.093-0.037,0.178-0.113,0.258
			c-0.074,0.079-0.184,0.119-0.326,0.119c-0.142,0-0.261-0.059-0.356-0.176c-0.097-0.117-0.19-0.256-0.282-0.415L169.492,10.368z
			 M169.154,9.766l-4.148-7.744l-4.236,7.744H169.154z"/>
		<path fill="#999999" d="M188.605,10.629c0,0.855-0.162,1.549-0.488,2.082c-0.326,0.532-0.775,0.947-1.348,1.245
			s-1.247,0.501-2.023,0.61c-0.777,0.108-1.613,0.163-2.508,0.163h-7.219c-0.142,0-0.248-0.042-0.319-0.125
			c-0.071-0.084-0.106-0.188-0.106-0.313V1.231c0-0.15,0.046-0.266,0.138-0.345c0.093-0.079,0.209-0.119,0.351-0.119h5.74
			c0.602,0,1.195,0.007,1.78,0.019c0.585,0.013,1.138,0.055,1.661,0.125c0.521,0.07,1.002,0.176,1.44,0.317
			c0.438,0.141,0.819,0.34,1.141,0.597c0.321,0.258,0.572,0.581,0.752,0.971s0.27,0.867,0.27,1.431c0,0.535-0.081,0.981-0.244,1.341
			c-0.163,0.358-0.366,0.648-0.608,0.87c-0.242,0.221-0.506,0.39-0.789,0.507c-0.284,0.117-0.547,0.198-0.789,0.244
			c-0.243,0.046-0.445,0.069-0.608,0.069s-0.24,0-0.231,0c0.509,0.05,1.002,0.138,1.479,0.264s0.902,0.316,1.278,0.572
			s0.677,0.59,0.902,1C188.48,9.505,188.597,10.016,188.605,10.629z M186.8,4.226c0-0.422-0.07-0.796-0.213-1.123
			s-0.414-0.603-0.814-0.826c-0.401-0.223-0.961-0.393-1.68-0.509c-0.719-0.115-1.654-0.174-2.807-0.174h-5.628v5.327h5.929
			c0.902,0,1.681-0.035,2.337-0.106c0.655-0.07,1.196-0.204,1.623-0.403c0.426-0.198,0.741-0.474,0.946-0.825
			S186.8,4.782,186.8,4.226z M187.54,10.643c0-0.576-0.141-1.057-0.42-1.441c-0.281-0.384-0.678-0.689-1.191-0.915
			s-1.139-0.386-1.873-0.482c-0.736-0.096-1.559-0.144-2.469-0.144h-5.929v6.241h7.056c1.129,0,2.016-0.092,2.664-0.275
			c0.646-0.184,1.129-0.427,1.447-0.728c0.317-0.301,0.516-0.647,0.596-1.04C187.499,11.467,187.54,11.061,187.54,10.643z"/>
	</g>
</g>
</svg>
