<?xml version="1.0" encoding="utf-8"?>
<!-- Generator: Adobe Illustrator 15.1.0, SVG Export Plug-In . SVG Version: 6.00 Build 0)  -->
<!DOCTYPE svg PUBLIC "-//W3C//DTD SVG 1.1//EN" "http://www.w3.org/Graphics/SVG/1.1/DTD/svg11.dtd">
<svg version="1.1" id="Layer_1" xmlns="http://www.w3.org/2000/svg" xmlns:xlink="http://www.w3.org/1999/xlink" x="0px" y="0px"
	 width="188.522px" height="21.025px" viewBox="0 0 188.522 21.025" enable-background="new 0 0 188.522 21.025"
	 xml:space="preserve">
<g>
	<g>
		<path fill="#EC2024" d="M109.661,4.341c0-0.529-0.137-1.023-0.358-1.477l-2.655,1.977v6.227l0,0c0,0.996-1.06,2.096-2.096,2.096
			v0.004h-9.094l-2.395,1.783c0.694,0.299,1.412,0.465,2.043,0.465v-0.006h9.442v0.006c0.031,0,0.063-0.006,0.099-0.006h0.066
			v-0.006c2.014-0.082,4.809-1.756,4.93-4.174h0.004v-0.021c0-0.047,0.01-0.094,0.01-0.141h-0.01L109.661,4.341z"/>
		<path fill="#EC2024" d="M90,11.067c0,0.033,0.007,0.062,0.007,0.098v0.057h0.003c0.024,0.469,0.146,0.908,0.345,1.316l2.651-1.977
			V4.348h0.006c0-0.996,1.062-2.098,2.095-2.098V2.249h9.07l2.407-1.791c-0.69-0.299-1.405-0.463-2.032-0.463v0.01h-9.445V0.001
			c-2.068,0-5.105,1.775-5.105,4.348h0.007v6.719H90z"/>
	</g>
	<path fill="#EC2024" d="M13.921,0.001c0,0-6.322,0-10.084,0c-3.763,0-3.747,2.514-3.747,2.514V14.21c0,0-0.038,1.211,1.482,1.211
		s1.543-1.15,1.543-1.15V8.852h10.761c0,0,5.659,0.164,5.659-4.352S13.921,0.001,13.921,0.001z M14.112,6.6L3.094,6.589V4.311
		c0,0-0.241-2.018,2.078-2.018c2.317,0,8.989,0,8.989,0s2.388,0.012,2.388,2.168C16.549,6.62,14.112,6.6,14.112,6.6z"/>
	<path fill="#EC2024" d="M41.909,15.428l-5.832-6.576h0.163c0,0,5.66,0.164,5.66-4.352s-5.614-4.5-5.614-4.5s-6.321,0-10.084,0
		c-3.763,0-3.747,2.514-3.747,2.514V14.21c0,0-0.039,1.211,1.481,1.211c1.521,0,1.543-1.15,1.543-1.15V8.852h7.056l5.833,6.576
		H41.909z M25.459,6.589V4.311c0,0-0.24-2.018,2.077-2.018c2.318,0,8.99,0,8.99,0s2.388,0.012,2.388,2.168
		c0,2.158-2.438,2.139-2.438,2.139L25.459,6.589z"/>
	<path fill="#EC2024" d="M63.017,13.161v0.006H49.923v-0.004c-1.034,0-2.094-1.102-2.094-2.096h-0.004V8.823h8.402v0.002
		c0,0,1.465,0.029,1.465-1.102c0-1.031-1.215-1.129-1.43-1.141V6.581h-8.437V4.348h0.004c0-0.996,1.06-2.098,2.094-2.098V2.249
		h13.092v0.002c0,0,1.465,0.029,1.465-1.102c0-1.043-1.244-1.135-1.438-1.141V0.005h-13.12V0.001c-2.07,0-5.106,1.775-5.106,4.348
		h0.007v6.719h-0.007c0,0.033,0.006,0.062,0.007,0.098v0.057h0.004c0.118,2.486,3.067,4.193,5.095,4.193v-0.004h13.13v-0.008
		c0.22-0.006,1.427-0.072,1.427-1.104C64.481,13.171,63.017,13.161,63.017,13.161z"/>
	<path fill="#EC2024" d="M87.045,10.889h-0.007c-0.002-0.154-0.076-1.135-1.508-1.135c-1.559,0-1.498,1.16-1.498,1.16h0.007v0.158
		h0.001c-0.004,0.992-1.062,2.09-2.094,2.09v0.004h-9.447v-0.004c-1.034,0-2.094-1.102-2.094-2.096h-0.006V4.348h0.006
		c0-0.996,1.06-2.098,2.094-2.098V2.249h9.468c1.022,0.014,2.067,1.1,2.073,2.086h-0.001v0.16c0,0-0.065,1.158,1.491,1.158
		c1.434,0,1.504-0.98,1.507-1.137h0.008V4.341h0.008c0-2.57-3.036-4.346-5.106-4.346v0.01h-9.447V0.001
		c-2.069,0-5.107,1.775-5.107,4.348h0.008v6.719h-0.008c0,0.033,0.008,0.062,0.008,0.098v0.057h0.006
		c0.117,2.486,3.065,4.193,5.094,4.193v-0.004h9.447v0.004c0.033,0,0.062-0.004,0.097-0.004h0.063v-0.006
		c2.062-0.088,4.946-1.83,4.946-4.338h-0.009L87.045,10.889L87.045,10.889z"/>
	<path fill="#EC2024" d="M131.965,4.341h0.009c0-2.57-3.035-4.346-5.104-4.346v0.01h-9.449V0.001c-2.07,0-5.105,1.775-5.105,4.348
		h0.006v6.871h0.006c0.119,2.486,3.066,4.193,5.095,4.193v-0.004h11.544v1.273h-0.004c0,0.984-1.045,2.08-5.689,2.092l-9.47-0.004
		v0.002c-0.172,0.002-1.442,0.047-1.442,1.104c0,1.035,1.222,1.129,1.429,1.141v0.006l13.083,0.008c2.066,0,5.105-1.775,5.105-4.344
		L131.965,4.341z M117.421,13.167v-0.004c-1.032,0-2.096-1.102-2.096-2.096h-0.004V4.348h0.004c0-0.996,1.062-2.098,2.096-2.098
		V2.249h9.468c1.028,0.014,2.074,1.104,2.074,2.094h0.004v8.824H117.421L117.421,13.167z"/>
	<text transform="matrix(1 0 0 1 142.6338 14.7292)" fill="#999999" font-family="'Gruppo'" font-size="25.6676">LAB</text>
</g>
</svg>
