<?xml version="1.0" encoding="utf-8"?>
<!-- Generator: Adobe Illustrator 15.1.0, SVG Export Plug-In . SVG Version: 6.00 Build 0)  -->
<!DOCTYPE svg PUBLIC "-//W3C//DTD SVG 1.1//EN" "http://www.w3.org/Graphics/SVG/1.1/DTD/svg11.dtd">
<svg version="1.1" id="Layer_1" xmlns="http://www.w3.org/2000/svg" xmlns:xlink="http://www.w3.org/1999/xlink" x="0px" y="0px"
	 width="131.335px" height="20.815px" viewBox="0 0 131.335 20.815" enable-background="new 0 0 131.335 20.815"
	 xml:space="preserve">
<g>
	<path d="M0,20.53V0.138h1.143V19.36h5.741v1.17H0z"/>
	<path d="M24.99,20.53l-2.342-6.111h-9.282l-2.371,6.111H9.853l8.14-21.049l8.168,21.049H24.99z M17.993,2.451l-4.169,10.795h8.339
		L17.993,2.451z"/>
	<path d="M41.098,18.874c-1.238,1.104-2.751,1.656-4.541,1.656h-6.369V0.138h4.97c1.58,0,2.837,0.41,3.77,1.228
		c0.99,0.876,1.485,2.095,1.485,3.656c0,1.79-0.733,3.104-2.199,3.941c1.428,0.285,2.58,0.934,3.456,1.941
		c0.857,1.01,1.285,2.249,1.285,3.713C42.955,16.37,42.336,17.788,41.098,18.874z M38.1,2.337c-0.781-0.686-1.733-1.028-2.856-1.028
		h-3.913v7.426h4.084c1.104,0,2.018-0.343,2.742-1.028c0.723-0.686,1.085-1.58,1.085-2.685C39.242,3.879,38.861,2.985,38.1,2.337z
		 M40.242,11.163c-0.971-0.838-2.19-1.257-3.656-1.257h-5.255v9.455h5.255c1.447,0,2.675-0.439,3.684-1.314
		c1.028-0.875,1.542-2.018,1.542-3.428C41.813,13.19,41.289,12.038,40.242,11.163z"/>
	<path fill="#999999" d="M63.975,19.331c-1.066,0.781-2.513,1.256-4.341,1.428c-0.209,0.02-0.438,0.033-0.686,0.043
		s-0.504,0.014-0.771,0.014c-3.084,0-5.598-0.971-7.54-2.912c-1.961-1.961-2.941-4.484-2.941-7.569c0-3.085,0.971-5.598,2.913-7.54
		c1.961-1.961,4.484-2.942,7.568-2.942c1.751,0,3.332,0.257,4.741,0.771c0.837,0.324,1.646,0.791,2.428,1.399v1.456
		c-0.8-0.666-1.676-1.199-2.628-1.599c-1.447-0.59-2.961-0.885-4.541-0.885c-2.704,0-4.932,0.876-6.683,2.627
		c-1.752,1.752-2.627,3.989-2.627,6.712c0,2.723,0.866,4.952,2.599,6.684c1.751,1.752,3.988,2.627,6.711,2.627
		c1.694,0,3.17-0.305,4.427-0.914c0.724-0.361,1.638-0.943,2.742-1.742v1.342L63.975,19.331z"/>
	<path fill="#999999" d="M85.909,17.874c-1.961,1.961-4.484,2.941-7.568,2.941s-5.598-0.971-7.54-2.912
		c-1.961-1.961-2.941-4.484-2.941-7.569c0-3.085,0.971-5.598,2.913-7.54c1.961-1.961,4.484-2.942,7.568-2.942
		c3.065,0,5.588,0.971,7.568,2.913c1.961,1.961,2.942,4.484,2.942,7.569C88.851,13.419,87.87,15.932,85.909,17.874z M85.081,3.622
		c-1.752-1.751-3.999-2.627-6.74-2.627c-2.704,0-4.932,0.876-6.683,2.627c-1.752,1.752-2.627,3.989-2.627,6.712
		c0,2.723,0.866,4.952,2.599,6.684c1.751,1.752,3.988,2.627,6.711,2.627c2.742,0,4.988-0.857,6.74-2.57
		c1.732-1.732,2.599-3.98,2.599-6.741C87.68,7.592,86.814,5.356,85.081,3.622z"/>
	<path fill="#999999" d="M107.13,20.53l-2.342-6.111h-9.281l-2.372,6.111h-1.143l8.141-21.049l8.168,21.049H107.13z M100.134,2.451
		l-4.17,10.795h8.34L100.134,2.451z"/>
	<path fill="#999999" d="M115.384,1.309V20.53h-1.17V1.309H109.7V0.138h10.197v1.171H115.384z"/>
</g>
<g>
	<path fill="#999999" d="M124.409,0.631h-1.367V0.137h3.328v0.493h-1.373v4h-0.588V0.631z"/>
	<path fill="#999999" d="M130.655,2.658c-0.035-0.627-0.074-1.387-0.074-1.94h-0.014c-0.16,0.52-0.34,1.087-0.566,1.707l-0.793,2.18
		h-0.441l-0.732-2.14c-0.213-0.64-0.387-1.214-0.514-1.747h-0.014c-0.014,0.56-0.047,1.307-0.086,1.987L127.3,4.631h-0.553
		l0.312-4.494h0.74l0.768,2.174c0.188,0.553,0.334,1.046,0.453,1.513h0.014c0.119-0.453,0.279-0.947,0.48-1.513l0.799-2.174h0.74
		l0.281,4.494h-0.574L130.655,2.658z"/>
</g>
</svg>
