<?xml version="1.0" encoding="utf-8"?>
<!-- Generator: Adobe Illustrator 15.1.0, SVG Export Plug-In . SVG Version: 6.00 Build 0)  -->
<!DOCTYPE svg PUBLIC "-//W3C//DTD SVG 1.1//EN" "http://www.w3.org/Graphics/SVG/1.1/DTD/svg11.dtd">
<svg version="1.1" id="Layer_1" xmlns="http://www.w3.org/2000/svg" xmlns:xlink="http://www.w3.org/1999/xlink" x="0px" y="0px"
	 width="176.711px" height="21.025px" viewBox="29.25 3.483 176.711 21.025" enable-background="new 29.25 3.483 176.711 21.025"
	 xml:space="preserve">
<g>
	<g>
		<path fill="#FF0000" d="M138.822,7.82c0-0.53-0.137-1.023-0.358-1.477l-2.656,1.976v6.228l0,0c0,0.995-1.059,2.095-2.095,2.095
			v0.004h-9.094l-2.395,1.783c0.695,0.298,1.412,0.464,2.043,0.464v-0.005h9.443v0.005c0.031,0,0.064-0.005,0.099-0.005h0.066
			v-0.005c2.013-0.083,4.808-1.757,4.93-4.174h0.003v-0.022c0-0.047,0.011-0.094,0.011-0.141h-0.011L138.822,7.82z"/>
		<path fill="#FF0000" d="M119.161,14.546c0,0.033,0.007,0.063,0.007,0.098v0.056h0.003c0.024,0.469,0.146,0.908,0.345,1.317
			l2.651-1.976V7.827h0.006c0-0.996,1.062-2.097,2.095-2.097V5.727h9.07l2.407-1.791c-0.691-0.298-1.405-0.462-2.032-0.462v0.01
			h-9.445V3.48c-2.069,0-5.106,1.776-5.106,4.347h0.007v6.719H119.161z"/>
	</g>
	<path fill="#FF0000" d="M43.082,3.48c0,0-6.322,0-10.084,0c-3.763,0-3.747,2.514-3.747,2.514v11.695c0,0-0.038,1.21,1.482,1.21
		s1.543-1.15,1.543-1.15v-5.418h10.761c0,0,5.659,0.165,5.659-4.351S43.082,3.48,43.082,3.48z M43.273,10.079l-11.018-0.011V7.791
		c0,0-0.241-2.018,2.078-2.018c2.317,0,8.989,0,8.989,0S45.71,5.784,45.71,7.94C45.71,10.098,43.273,10.079,43.273,10.079z"/>
	<path fill="#FF0000" d="M71.07,18.907l-5.832-6.576h0.163c0,0,5.66,0.165,5.66-4.351s-5.614-4.5-5.614-4.5s-6.321,0-10.084,0
		s-3.747,2.514-3.747,2.514v11.695c0,0-0.039,1.21,1.481,1.21c1.521,0,1.543-1.15,1.543-1.15v-5.418h7.056l5.833,6.576H71.07z
		 M54.62,10.068V7.791c0,0-0.24-2.018,2.077-2.018c2.318,0,8.99,0,8.99,0s2.388,0.011,2.388,2.167c0,2.158-2.438,2.139-2.438,2.139
		L54.62,10.068z"/>
	<path fill="#FF0000" d="M92.178,16.64v0.005H79.084v-0.004c-1.034,0-2.094-1.1-2.094-2.095h-0.004v-2.243h8.402v0.001
		c0,0,1.465,0.029,1.465-1.101c0-1.032-1.215-1.13-1.43-1.141v-0.002h-8.437V7.827h0.004c0-0.996,1.06-2.097,2.094-2.097V5.727
		h13.092v0.002c0,0,1.464,0.03,1.464-1.101c0-1.043-1.243-1.134-1.438-1.14V3.483h-13.12V3.48c-2.07,0-5.106,1.776-5.106,4.347
		h0.007v6.719h-0.007c0,0.033,0.006,0.063,0.007,0.098v0.056h0.004c0.118,2.486,3.067,4.193,5.095,4.193v-0.004h13.13v-0.007
		c0.22-0.005,1.427-0.073,1.427-1.103C93.642,16.65,92.178,16.64,92.178,16.64z"/>
	<path fill="#FF0000" d="M116.206,14.369h-0.007c-0.002-0.155-0.076-1.136-1.507-1.136c-1.559,0-1.498,1.16-1.498,1.16h0.006v0.16
		h0.001c-0.004,0.992-1.063,2.088-2.094,2.088v0.004h-9.447v-0.004c-1.034,0-2.094-1.1-2.094-2.095h-0.005V7.827h0.005
		c0-0.996,1.06-2.097,2.094-2.097V5.727h9.468c1.023,0.014,2.068,1.1,2.073,2.086h-0.001v0.161c0,0-0.065,1.158,1.491,1.158
		c1.434,0,1.505-0.98,1.507-1.136h0.008V7.82h0.008c0-2.571-3.036-4.347-5.106-4.347v0.01h-9.448V3.48
		c-2.069,0-5.107,1.776-5.107,4.347h0.008v6.719h-0.008c0,0.033,0.008,0.063,0.008,0.098v0.056h0.005
		c0.118,2.486,3.066,4.193,5.094,4.193v-0.004h9.447v0.004c0.033,0,0.063-0.004,0.097-0.004h0.063v-0.004
		c2.063-0.088,4.947-1.831,4.947-4.338h-0.009V14.369z"/>
	<path fill="#FF0000" d="M161.126,7.82h0.009c0-2.571-3.036-4.347-5.104-4.347v0.01h-9.449V3.48c-2.07,0-5.106,1.776-5.106,4.347
		h0.007v6.872h0.006c0.118,2.486,3.066,4.193,5.094,4.193v-0.004h11.544v1.274h-0.004c0,0.984-1.045,2.079-5.69,2.092l-9.469-0.004
		v0.002c-0.172,0.001-1.443,0.047-1.443,1.103c0,1.034,1.222,1.129,1.429,1.14v0.007l13.083,0.007c2.067,0,5.106-1.775,5.106-4.344
		L161.126,7.82z M146.582,16.645v-0.004c-1.032,0-2.095-1.1-2.095-2.095h-0.004V7.827h0.004c0-0.996,1.062-2.097,2.095-2.097V5.727
		h9.468c1.028,0.014,2.074,1.105,2.074,2.094h0.004v8.825L146.582,16.645L146.582,16.645z"/>
	<g>
		<path fill="#999999" d="M174.442,18.845h-1.747V3.424h1.747V18.845z"/>
		<path fill="#999999" d="M184.716,3.423c0.916,0,1.801,0.175,2.656,0.523c0.851,0.35,1.607,0.858,2.257,1.527
			c1.443,1.476,2.166,3.362,2.166,5.66c0,2.299-0.723,4.186-2.166,5.66c-0.649,0.67-1.406,1.178-2.257,1.526
			c-0.855,0.351-1.743,0.523-2.656,0.523h-6.499V3.422L184.716,3.423L184.716,3.423z M184.645,17.19c1.615,0,2.93-0.597,3.938-1.792
			c0.979-1.15,1.468-2.571,1.468-4.263c0-1.692-0.489-3.114-1.468-4.263c-1.01-1.195-2.322-1.793-3.938-1.793h-4.68V17.19H184.645z"
			/>
		<path fill="#999999" d="M196.363,5.1v5.172h8.572v1.7h-8.572v5.195h9.598v1.678h-11.343V3.424h11.343v1.677h-9.598V5.1z"/>
	</g>
</g>
</svg>
